<svg width="60" height="60" viewBox="0 0 60 60" fill="none" xmlns="http://www.w3.org/2000/svg">
<g id="storefront">
<path id="Vector" d="M54.7446 22.225L52.1196 11.3C51.5696 9.05 49.6196 7.5 47.3446 7.5H12.6196C10.3696 7.5 8.39465 9.075 7.86965 11.3L5.24465 22.225C4.64465 24.775 5.19465 27.375 6.79465 29.425C6.99465 29.7 7.26965 29.9 7.49465 30.15V47.5C7.49465 50.25 9.74465 52.5 12.4946 52.5H47.4946C50.2446 52.5 52.4946 50.25 52.4946 47.5V30.15C52.7196 29.925 52.9946 29.7 53.1946 29.45C54.7946 27.4 55.3696 24.775 54.7446 22.225ZM47.2696 12.475L49.8946 23.4C50.1446 24.45 49.9196 25.5 49.2696 26.325C48.9196 26.775 48.1696 27.5 46.9196 27.5C45.3946 27.5 44.0696 26.275 43.8946 24.65L42.4446 12.5L47.2696 12.475ZM32.4946 12.5H37.3946L38.7446 23.8C38.8696 24.775 38.5696 25.75 37.9196 26.475C37.3696 27.125 36.5696 27.5 35.5446 27.5C33.8696 27.5 32.4946 26.025 32.4946 24.225V12.5ZM21.2196 23.8L22.5946 12.5H27.4946V24.225C27.4946 26.025 26.1196 27.5 24.2696 27.5C23.4196 27.5 22.6446 27.125 22.0446 26.475C21.4196 25.75 21.1196 24.775 21.2196 23.8ZM10.0946 23.4L12.6196 12.5H17.5446L16.0946 24.65C15.8946 26.275 14.5946 27.5 13.0696 27.5C11.8446 27.5 11.0696 26.775 10.7446 26.325C10.0696 25.525 9.84465 24.45 10.0946 23.4ZM12.4946 47.5V32.425C12.6946 32.45 12.8696 32.5 13.0696 32.5C15.2446 32.5 17.2196 31.6 18.6696 30.125C20.1696 31.625 22.1696 32.5 24.4446 32.5C26.6196 32.5 28.5696 31.6 30.0196 30.175C31.4946 31.6 33.4946 32.5 35.7446 32.5C37.8446 32.5 39.8446 31.625 41.3446 30.125C42.7946 31.6 44.7696 32.5 46.9446 32.5C47.1446 32.5 47.3196 32.45 47.5196 32.425V47.5H12.4946Z" fill="white"/>
</g>
</svg>
